<?xml version="1.0" encoding="UTF-8" standalone="no"?>
<svg
   xmlns:dc="http://purl.org/dc/elements/1.1/"
   xmlns:cc="http://creativecommons.org/ns#"
   xmlns:rdf="http://www.w3.org/1999/02/22-rdf-syntax-ns#"
   xmlns:svg="http://www.w3.org/2000/svg"
   xmlns="http://www.w3.org/2000/svg"
   id="svg8245"
   version="1.1"
   viewBox="0 0 7.144 6.795"
   height="6.7950001mm"
   width="7.1440001mm">
  <defs
     id="defs8239" />
  <metadata
     id="metadata8242">
    <rdf:RDF>
      <cc:Work
         rdf:about="">
        <dc:format>image/svg+xml</dc:format>
        <dc:type
           rdf:resource="http://purl.org/dc/dcmitype/StillImage" />
        <dc:title></dc:title>
      </cc:Work>
    </rdf:RDF>
  </metadata>
  <g
     transform="translate(0,-290.205)"
     id="layer1">
    <g
       style="fill:#ffffff;stroke:#ffffff;stroke-width:2.69801331;stroke-miterlimit:4;stroke-dasharray:none"
       transform="matrix(0.03706431,0,0,0.03706431,-32.032905,249.78257)"
       id="g5806">
      <g
         style="fill:#ffffff;stroke:#ffffff;stroke-width:2.69801331;stroke-miterlimit:4;stroke-dasharray:none"
         id="g5749">
        <g
           style="fill:#ffffff;stroke:#ffffff;stroke-width:2.69801331;stroke-miterlimit:4;stroke-dasharray:none"
           id="g5747">
          <path
             id="path5745"
             d="m 960.62768,1091.9515 c -2.34658,0 -4.69381,0.8482 -6.56432,2.5532 l -85.26734,77.7005 c -2.99773,2.7321 -3.99325,6.9425 -2.52866,10.7246 1.46522,3.7822 5.03692,6.2219 9.09298,6.2219 h 13.6143 v 77.8497 c 0,3.0867 2.50602,5.5867 5.59271,5.5867 h 46.73502 c 3.08637,0 5.59272,-2.4997 5.59272,-5.5867 v -47.2704 h 27.46519 v 47.2704 c 0,3.0867 2.50601,5.5867 5.59273,5.5867 h 46.73499 c 3.0864,0 5.5867,-2.4997 5.5867,-5.5867 v -77.8497 h 13.6203 c 4.0558,0 7.6278,-2.44 9.093,-6.2219 1.2255,-3.1654 0.7053,-6.6198 -1.2455,-9.2671 l -28.5118,-26.0892 -27.47183,-25.1298 -22.25255,-20.3594 -8.31431,-7.5796 c -1.87147,-1.7053 -4.21774,-2.5532 -6.56433,-2.5532 z m 0,11.6959 27.77672,25.3106 38.651,35.2132 15.1404,13.8011 h -15.5078 c -3.0864,0 -5.5927,2.506 -5.5927,5.5928 v 77.8436 h -35.55564 v -47.2641 c 0,-3.0866 -2.49997,-5.5866 -5.58665,-5.5866 h -38.65064 c -3.08669,0 -5.58666,2.4996 -5.58666,5.5866 v 47.2641 h -35.5617 v -77.8436 c 0,-3.0864 -2.49996,-5.5928 -5.58666,-5.5928 h -15.51382 z"
             style="fill:#ffffff;stroke:#ffffff;stroke-width:2.69801331;stroke-miterlimit:4;stroke-dasharray:none" />
        </g>
      </g>
      <g
         style="fill:#ffffff;stroke:#ffffff;stroke-width:2.69801331;stroke-miterlimit:4;stroke-dasharray:none"
         id="g5751" />
      <g
         style="fill:#ffffff;stroke:#ffffff;stroke-width:2.69801331;stroke-miterlimit:4;stroke-dasharray:none"
         id="g5753" />
      <g
         style="fill:#ffffff;stroke:#ffffff;stroke-width:2.69801331;stroke-miterlimit:4;stroke-dasharray:none"
         id="g5755" />
      <g
         style="fill:#ffffff;stroke:#ffffff;stroke-width:2.69801331;stroke-miterlimit:4;stroke-dasharray:none"
         id="g5757" />
      <g
         style="fill:#ffffff;stroke:#ffffff;stroke-width:2.69801331;stroke-miterlimit:4;stroke-dasharray:none"
         id="g5759" />
      <g
         style="fill:#ffffff;stroke:#ffffff;stroke-width:2.69801331;stroke-miterlimit:4;stroke-dasharray:none"
         id="g5761" />
      <g
         style="fill:#ffffff;stroke:#ffffff;stroke-width:2.69801331;stroke-miterlimit:4;stroke-dasharray:none"
         id="g5763" />
      <g
         style="fill:#ffffff;stroke:#ffffff;stroke-width:2.69801331;stroke-miterlimit:4;stroke-dasharray:none"
         id="g5765" />
      <g
         style="fill:#ffffff;stroke:#ffffff;stroke-width:2.69801331;stroke-miterlimit:4;stroke-dasharray:none"
         id="g5767" />
      <g
         style="fill:#ffffff;stroke:#ffffff;stroke-width:2.69801331;stroke-miterlimit:4;stroke-dasharray:none"
         id="g5769" />
      <g
         style="fill:#ffffff;stroke:#ffffff;stroke-width:2.69801331;stroke-miterlimit:4;stroke-dasharray:none"
         id="g5771" />
      <g
         style="fill:#ffffff;stroke:#ffffff;stroke-width:2.69801331;stroke-miterlimit:4;stroke-dasharray:none"
         id="g5773" />
      <g
         style="fill:#ffffff;stroke:#ffffff;stroke-width:2.69801331;stroke-miterlimit:4;stroke-dasharray:none"
         id="g5775" />
      <g
         style="fill:#ffffff;stroke:#ffffff;stroke-width:2.69801331;stroke-miterlimit:4;stroke-dasharray:none"
         id="g5777" />
      <g
         style="fill:#ffffff;stroke:#ffffff;stroke-width:2.69801331;stroke-miterlimit:4;stroke-dasharray:none"
         id="g5779" />
    </g>
  </g>
</svg>
