<?xml version="1.0" encoding="UTF-8" standalone="no"?>
<!-- Created with Inkscape (http://www.inkscape.org/) -->

<svg
   xmlns:dc="http://purl.org/dc/elements/1.1/"
   xmlns:cc="http://creativecommons.org/ns#"
   xmlns:rdf="http://www.w3.org/1999/02/22-rdf-syntax-ns#"
   xmlns:svg="http://www.w3.org/2000/svg"
   xmlns="http://www.w3.org/2000/svg"
   xmlns:sodipodi="http://sodipodi.sourceforge.net/DTD/sodipodi-0.dtd"
   xmlns:inkscape="http://www.inkscape.org/namespaces/inkscape"
   width="47.625mm"
   height="53.603001mm"
   viewBox="0 0 47.625002 53.603"
   version="1.1"
   id="svg8"
   inkscape:version="0.92.4 (5da689c313, 2019-01-14)">
  <defs
     id="defs2">
    <clipPath
       clipPathUnits="userSpaceOnUse"
       id="clipPath1100">
      <rect
         style="opacity:1;vector-effect:none;fill:#666666;fill-opacity:0.99607843;stroke:none;stroke-width:0.26458332;stroke-linecap:butt;stroke-linejoin:miter;stroke-miterlimit:4;stroke-dasharray:none;stroke-dashoffset:0;stroke-opacity:1"
         id="rect1102"
         width="171.60118"
         height="171.22322"
         x="-151.19048"
         y="199.48215"
         rx="2.6356759"
         ry="2.6356759" />
    </clipPath>
  </defs>
  <sodipodi:namedview
     id="base"
     pagecolor="#ffffff"
     bordercolor="#666666"
     borderopacity="1.0"
     inkscape:pageopacity="0.0"
     inkscape:pageshadow="2"
     inkscape:zoom="0.98994949"
     inkscape:cx="13.274029"
     inkscape:cy="169.88663"
     inkscape:document-units="mm"
     inkscape:current-layer="layer1"
     showgrid="false"
     inkscape:window-width="1920"
     inkscape:window-height="1017"
     inkscape:window-x="-8"
     inkscape:window-y="-8"
     inkscape:window-maximized="1" />
  <metadata
     id="metadata5">
    <rdf:RDF>
      <cc:Work
         rdf:about="">
        <dc:format>image/svg+xml</dc:format>
        <dc:type
           rdf:resource="http://purl.org/dc/dcmitype/StillImage" />
        <dc:title></dc:title>
      </cc:Work>
    </rdf:RDF>
  </metadata>
  <g
     inkscape:label="Layer 1"
     inkscape:groupmode="layer"
     id="layer1"
     transform="translate(0,-243.397)">
    <path
       style="opacity:1;vector-effect:none;fill:#333333;fill-opacity:1;stroke:none;stroke-width:0.11991964;stroke-linecap:butt;stroke-linejoin:miter;stroke-miterlimit:4;stroke-dasharray:none;stroke-dashoffset:0;stroke-opacity:1"
       d="m 24.433463,243.39693 a 5.6533543,5.6533543 0 0 0 -5.65332,5.65332 5.6533543,5.6533543 0 0 0 0.0714,0.85045 c -20.749166,4.2881 -1.73532,33.28348 -18.851736,41.68987 h 18.870246 a 4.9680937,4.9680937 0 0 0 -0.0258,0.44127 4.9680937,4.9680937 0 0 0 4.96823,4.96823 4.9680937,4.9680937 0 0 0 4.96801,-4.96823 4.9680937,4.9680937 0 0 0 -0.0279,-0.44127 h 18.8726 c -14.17962,-8.31682 3.32368,-37.73184 -17.59961,-41.76318 a 5.6533543,5.6533543 0 0 0 0.0611,-0.77714 5.6533543,5.6533543 0 0 0 -5.65331,-5.65332 z m 0,2.36561 a 3.2876209,3.2876209 0 0 1 3.28771,3.28771 3.2876209,3.2876209 0 0 1 -0.0356,0.4497 c -0.95094,-0.0883 -1.96613,-0.13384 -3.05326,-0.1321 -1.23967,0.002 -2.38495,0.0623 -3.44653,0.17449 a 3.2876209,3.2876209 0 0 1 -0.0398,-0.49209 3.2876209,3.2876209 0 0 1 3.28749,-3.28771 z m 0.2033,6.62251 c 6.70643,-0.0108 9.57589,1.67787 11.27806,4.05783 1.70217,2.37995 2.30628,6.19533 2.40332,10.72999 0.097,4.53464 -0.26667,9.61392 0.3895,14.44704 0.3236,2.38357 0.97202,4.78819 2.1103,6.95347 H 7.725273 c 1.36129,-2.11757 2.236,-4.46754 2.69305,-6.83051 0.95296,-4.92688 0.61032,-10.05703 0.66915,-14.61169 0.0589,-4.55465 0.57022,-8.35922 2.19814,-10.69884 1.62792,-2.33962 4.45857,-4.03621 11.35115,-4.04729 z m -3.67723,39.20552 h 5.70439 a 2.889118,2.889118 0 0 1 0.0377,0.44127 2.889118,2.889118 0 0 1 -2.88909,2.88932 2.889118,2.889118 0 0 1 -2.88907,-2.88932 2.889118,2.889118 0 0 1 0.0361,-0.44127 z"
       id="path1246"
       inkscape:connector-curvature="0" />
  </g>
</svg>
