<?xml version="1.0" encoding="UTF-8" standalone="no"?>
<svg
   xmlns:dc="http://purl.org/dc/elements/1.1/"
   xmlns:cc="http://creativecommons.org/ns#"
   xmlns:rdf="http://www.w3.org/1999/02/22-rdf-syntax-ns#"
   xmlns:svg="http://www.w3.org/2000/svg"
   xmlns="http://www.w3.org/2000/svg"
   id="svg8245"
   version="1.1"
   viewBox="0 0 6.5009999 7.46"
   height="7.46mm"
   width="6.5009999mm">
  <defs
     id="defs8239" />
  <metadata
     id="metadata8242">
    <rdf:RDF>
      <cc:Work
         rdf:about="">
        <dc:format>image/svg+xml</dc:format>
        <dc:type
           rdf:resource="http://purl.org/dc/dcmitype/StillImage" />
        <dc:title></dc:title>
      </cc:Work>
    </rdf:RDF>
  </metadata>
  <g
     transform="translate(0,-289.54)"
     id="layer1">
    <path
       id="path5831"
       d="m 3.2756472,289.54032 c -0.60719,0.0114 -0.45448,0.54078 -0.51652,0.78082 -0.88202,0.14562 -1.78770996,0.9207 -1.83170996,2.16254 -0.0666,1.88029 -0.6884,2.1502 -0.8353,2.31784 -0.15739,0.17962 -0.12842,0.75672 0.20447,0.75672 H 6.1582372 c 0.28491,0 0.39084,-0.47648 0.32313,-0.59754 -0.16396,-0.29321 -0.84839,-0.75488 -0.88884,-1.88236 -0.0502,-1.40078 -0.27147,-2.23003 -1.8727,-2.79337 0,-0.2098 -0.0362,-0.75225 -0.44418,-0.74465 z m -0.0327,1.18739 a 0.1994491,0.1994491 0 0 1 0.0198,0 c 0.67932,0.0391 1.14934,0.3278 1.42899,0.69641 0.27961,0.36859 0.37629,0.80213 0.38098,1.14975 0.0118,0.90462 0.15964,1.68483 0.59804,2.1857 a 0.1994491,0.1994491 0 0 1 -0.14953,0.32987 l -4.58791196,0.008 a 0.1994491,0.1994491 0 0 1 -0.0912,-0.37521 c 0.037,-0.0191 0.1133,-0.0963 0.18423996,-0.22957 0.0709,-0.13322 0.13993,-0.31651 0.19677,-0.52518 0.11366,-0.41736 0.18402,-0.93976 0.18762,-1.41068 0.006,-0.77938 0.3157,-1.25316 0.70557,-1.50038 0.37456,-0.23752 0.7915,-0.27978 1.06824,-0.31735 a 0.1994491,0.1994491 0 0 1 0.008,-0.003 0.1994491,0.1994491 0 0 1 0.0511,-0.009 z m -0.89995,5.29641 a 0.90689586,0.88887811 0 0 0 -0.004,0.0868 0.90689586,0.88887811 0 0 0 0.907149,0.88883 0.90689586,0.88887811 0 0 0 0.906701,-0.88883 0.90689586,0.88887811 0 0 0 -0.006,-0.0868 z"
       style="fill:#ffffff;stroke:none;stroke-width:0.01698733px;stroke-linecap:butt;stroke-linejoin:miter;stroke-opacity:1" />
  </g>
</svg>
