<?xml version="1.0" encoding="UTF-8" standalone="no"?>
<svg
   xmlns:dc="http://purl.org/dc/elements/1.1/"
   xmlns:cc="http://creativecommons.org/ns#"
   xmlns:rdf="http://www.w3.org/1999/02/22-rdf-syntax-ns#"
   xmlns:svg="http://www.w3.org/2000/svg"
   xmlns="http://www.w3.org/2000/svg"
   id="svg8245"
   version="1.1"
   viewBox="0 0 6.7249999 6.7249998"
   height="6.7249999mm"
   width="6.7249999mm">
  <defs
     id="defs8239" />
  <metadata
     id="metadata8242">
    <rdf:RDF>
      <cc:Work
         rdf:about="">
        <dc:format>image/svg+xml</dc:format>
        <dc:type
           rdf:resource="http://purl.org/dc/dcmitype/StillImage" />
        <dc:title></dc:title>
      </cc:Work>
    </rdf:RDF>
  </metadata>
  <g
     transform="translate(0,-290.275)"
     id="layer1">
    <g
       style="fill:#ffffff;stroke:#ffffff;stroke-width:8.51452541;stroke-miterlimit:4;stroke-dasharray:none"
       transform="matrix(0.0129191,0,0,0.0129191,0.05521035,290.33021)"
       id="g5853">
      <path
         style="fill:#ffffff;stroke:#ffffff;stroke-width:8.51452541;stroke-miterlimit:4;stroke-dasharray:none"
         d="m 272.066,512 h -32.133 c -25.989,0 -47.134,-21.144 -47.134,-47.133 v -10.871 c -11.049,-3.53 -21.784,-7.986 -32.097,-13.323 l -7.704,7.704 C 134.339,467.059 104.45,466.511 86.333,448.37 L 63.622,425.66 C 45.473,407.531 44.951,377.652 63.628,358.995 l 7.698,-7.698 C 65.989,340.984 61.534,330.251 58.003,319.2 H 47.133 C 21.145,319.2 0,298.056 0,272.067 V 239.933 C 0,213.944 21.145,192.8 47.134,192.8 h 10.87 c 3.531,-11.05 7.986,-21.784 13.323,-32.097 L 63.623,153 C 44.957,134.354 45.472,104.472 63.629,86.335 L 86.342,63.623 c 18.159,-18.184 48.041,-18.638 66.664,0.006 l 7.697,7.697 C 171.016,65.99 181.751,61.534 192.8,58.003 V 47.133 C 192.8,21.144 213.944,0 239.934,0 h 32.133 C 298.056,0 319.2,21.144 319.2,47.133 v 10.871 c 11.049,3.53 21.784,7.986 32.097,13.323 l 7.704,-7.704 c 18.659,-18.682 48.548,-18.134 66.665,0.007 l 22.711,22.71 c 18.149,18.129 18.671,48.008 -0.006,66.665 l -7.698,7.698 c 5.337,10.313 9.792,21.046 13.323,32.097 h 10.87 c 25.989,0 47.134,21.144 47.134,47.133 v 32.134 c 0,25.989 -21.145,47.133 -47.134,47.133 h -10.87 c -3.531,11.05 -7.986,21.784 -13.323,32.097 l 7.704,7.704 c 18.666,18.646 18.151,48.528 -0.006,66.665 l -22.713,22.712 c -18.159,18.184 -48.041,18.638 -66.664,-0.006 l -7.697,-7.697 c -10.313,5.336 -21.048,9.792 -32.097,13.323 v 10.871 C 319.2,490.856 298.056,512 272.066,512 Z M 165.717,409.17 c 14.327,8.473 29.747,14.874 45.831,19.025 6.624,1.709 11.252,7.683 11.252,14.524 v 22.148 c 0,9.447 7.687,17.133 17.134,17.133 h 32.133 c 9.447,0 17.134,-7.686 17.134,-17.133 v -22.148 c 0,-6.841 4.628,-12.815 11.252,-14.524 16.084,-4.151 31.504,-10.552 45.831,-19.025 5.895,-3.486 13.4,-2.538 18.243,2.305 l 15.688,15.689 c 6.764,6.772 17.626,6.615 24.224,0.007 l 22.727,-22.726 c 6.582,-6.574 6.802,-17.438 0.006,-24.225 l -15.695,-15.695 c -4.842,-4.842 -5.79,-12.348 -2.305,-18.242 8.473,-14.326 14.873,-29.746 19.024,-45.831 1.71,-6.624 7.684,-11.251 14.524,-11.251 h 22.147 c 9.447,0 17.134,-7.686 17.134,-17.133 v -32.134 c 0,-9.447 -7.687,-17.133 -17.134,-17.133 H 442.72 c -6.841,0 -12.814,-4.628 -14.524,-11.251 -4.151,-16.085 -10.552,-31.505 -19.024,-45.831 -3.485,-5.894 -2.537,-13.4 2.305,-18.242 l 15.689,-15.689 c 6.782,-6.774 6.605,-17.634 0.006,-24.225 L 404.447,84.838 c -6.587,-6.596 -17.451,-6.789 -24.225,-0.006 l -15.694,15.695 c -4.842,4.843 -12.35,5.791 -18.243,2.305 C 331.958,94.359 316.538,87.958 300.454,83.807 293.83,82.098 289.202,76.124 289.202,69.283 V 47.133 C 289.202,37.686 281.515,30 272.068,30 h -32.133 c -9.447,0 -17.134,7.686 -17.134,17.133 v 22.148 c 0,6.841 -4.628,12.815 -11.252,14.524 -16.084,4.151 -31.504,10.552 -45.831,19.025 -5.896,3.485 -13.401,2.537 -18.243,-2.305 L 131.787,84.836 c -6.764,-6.772 -17.627,-6.615 -24.224,-0.007 l -22.727,22.726 c -6.582,6.574 -6.802,17.437 -0.006,24.225 l 15.695,15.695 c 4.842,4.842 5.79,12.348 2.305,18.242 -8.473,14.326 -14.873,29.746 -19.024,45.831 -1.71,6.624 -7.684,11.251 -14.524,11.251 H 47.134 C 37.687,222.8 30,230.486 30,239.933 v 32.134 c 0,9.447 7.687,17.133 17.134,17.133 h 22.147 c 6.841,0 12.814,4.628 14.524,11.251 4.151,16.085 10.552,31.505 19.024,45.831 3.485,5.894 2.537,13.4 -2.305,18.242 l -15.689,15.689 c -6.782,6.774 -6.605,17.634 -0.006,24.225 l 22.725,22.725 c 6.587,6.596 17.451,6.789 24.225,0.006 l 15.694,-15.695 c 3.568,-3.567 10.991,-6.594 18.244,-2.304 z"
         id="path5840" />
      <path
         style="fill:#ffffff;stroke:#ffffff;stroke-width:8.51452541;stroke-miterlimit:4;stroke-dasharray:none"
         d="m 256,367.4 c -61.427,0 -111.4,-49.974 -111.4,-111.4 0,-61.426 49.973,-111.4 111.4,-111.4 61.427,0 111.4,49.974 111.4,111.4 0,61.426 -49.973,111.4 -111.4,111.4 z m 0,-192.8 c -44.885,0 -81.4,36.516 -81.4,81.4 0,44.884 36.516,81.4 81.4,81.4 44.884,0 81.4,-36.516 81.4,-81.4 0,-44.884 -36.515,-81.4 -81.4,-81.4 z"
         id="path5842" />
    </g>
  </g>
</svg>
